<?xml version="1.0" encoding="utf-8"?>
<svg width="0" height="0" class="hidden">
  <symbol xmlns="http://www.w3.org/2000/svg"  viewBox="0 0 18 20" id="github">
    <path d="M17.999 7.461c0-1.14-.366-2.21-1.065-3.143.266-.898.333-2.038.266-3.35C17.167.414 16.735 0 16.202 0c-.3 0-2.828.035-4.292 1.382a10.536 10.536 0 0 0-3.893 0C6.587.035 4.058 0 3.725 0c-.532 0-.965.415-.998.967-.1 1.313 0 2.453.266 3.35-.698.968-1.064 2.039-1.064 3.144 0 2.418 1.796 4.594 4.525 5.63-.1.208-.167.45-.233.691-2.895-.31-4.26-3.04-4.326-3.143a.942.942 0 0 0-1.33-.449c-.5.242-.7.864-.433 1.382.067.172 1.896 3.868 5.922 4.283v3.109c0 .587.433 1.036.998 1.036h5.823c.566 0 .998-.45.998-1.036v-4.11c0-.623-.133-1.21-.366-1.728C16.202 12.056 18 9.914 18 7.461Z"></path>
  </symbol>
  <symbol xmlns="http://www.w3.org/2000/svg" viewBox="0 0 20 20" id="linkedin">
    <path d="M13.644 3.034c-3.489 0-6.356 2.828-6.356 6.345v9.931c0 .38.311.69.69.69h3.593c.38 0 .691-.31.691-.69V9.655c0-.759.622-1.38 1.382-1.38.76 0 1.382.621 1.382 1.38v9.655c0 .38.31.69.69.69h3.593c.38 0 .69-.31.69-.69V9.38a6.356 6.356 0 0 0-6.355-6.346ZM4.283 6.276H.691c-.38 0-.691.31-.691.69V19.31c0 .38.31.69.69.69h3.593c.38 0 .691-.31.691-.69V6.966c0-.38-.31-.69-.69-.69ZM2.487 0A2.475 2.475 0 0 0 0 2.483a2.475 2.475 0 0 0 2.487 2.483 2.475 2.475 0 0 0 2.487-2.483A2.475 2.475 0 0 0 2.487 0Z"></path>
  </symbol>
  <symbol xmlns="http://www.w3.org/2000/svg" viewBox="0 0 16 20" id="angellist">
    <path d="M7.465 20c4.696 0 7.619-3.46 7.619-7.926 0-1.683-.274-3.203-2.185-3.66.465-1.273 1.806-4.957 1.806-6.136 0-1.04-.625-1.91-1.739-1.91C11.19.367 9.6 5.511 9.1 6.737 8.714 5.625 6.908 0 5.315 0 4.078 0 3.497.894 3.497 2.02c0 1.378 1.36 4.953 1.854 6.328-.25-.09-.52-.169-.796-.169-.932 0-1.923 1.137-1.923 2.055 0 .348.195.836.318 1.16-1.468.391-2.033 1.352-2.033 2.801C.913 17.015 3.637 20 7.465 20Zm4.024-15.78c.16-.482.84-2.512 1.477-2.512.343 0 .434.347.434.625 0 .745-1.536 4.867-1.875 5.78l-1.353-.234 1.317-3.66ZM4.747 1.887v-.001c0-.465.577-1.785 1.843 1.84l1.377 3.918c-.62-.05-1.103-.117-1.408.055-.434-1.125-1.812-4.676-1.812-5.813ZM4.655 9.53h.001c1.166 0 2.671 3.696 2.671 4.196 0 .199-.195.445-.422.445-.832 0-3.061-3.005-3.061-3.817.003-.3.505-.824.811-.824Zm-1.34 3.058c.454 0 2.161 2.356 2.161 2.856 0 .192-.306.324-.465.324-.64 0-.891-.606-2.033-2.007-1.183 1.16.816 3.394 2.32 3.394 1.039 0 1.716-.945 1.513-1.641.148 0 .33.012.466-.023.044 1.058.362 2.32 1.66 2.41 0-.035.08-.278.08-.29 0-.68-.422-1.273-.422-1.964 0-1.106.864-2.176 1.74-2.801.318-.234.704-.38 1.078-.512.386-.144.796-.313 1.09-.602-.044-.437-.227-.824-.673-.824-1.102 0-4.8.157-4.8-1.55 0-.262.005-.512.694-.512 1.285 0 4.55.312 5.505 1.136.72.63.967 4.422-1.234 6.825h-.003c-1.158 1.25-2.64 1.899-4.367 1.899-2.364 0-4.231-1.274-5.13-3.45-.681-1.694.151-2.668.82-2.668Zm4.751-.703c.388.122.785.157 1.183.235-.295.21-.556.469-.808.746-.112-.332-.247-.656-.375-.981Z"></path>
  </symbol>
  <symbol xmlns="http://www.w3.org/2000/svg" viewBox="0 0 20 16" id="medium">
    <path d="M18.404 1.88 20 .338V0h-5.528l-3.94 9.91L6.049 0H.253v.338l1.864 2.267a.795.795 0 0 1 .252.66v8.912c.058.32-.046.65-.269.884L0 15.633v.333h5.954v-.337l-2.1-2.568a1.055 1.055 0 0 1-.289-.884V4.468L8.792 15.97h.607l4.494-11.502v9.163c0 .242 0 .291-.156.45l-1.617 1.58V16h7.843v-.338l-1.558-1.542a.47.47 0 0 1-.178-.45V2.33a.469.469 0 0 1 .177-.45Z"></path>
  </symbol>
  <symbol xmlns="http://www.w3.org/2000/svg" viewBox="0 0 22 18" id="mail">
    <path fill-rule="evenodd" d="M6.4 2h9.2c1.153 0 1.898.002 2.464.048.544.044.745.12.844.17a2 2 0 0 1 .874.874c.05.099.126.3.17.844.046.566.048 1.31.048 2.464v5.2c0 1.153-.002 1.898-.048 2.464-.044.544-.12.745-.17.844a2 2 0 0 1-.874.874c-.099.05-.3.126-.844.17-.566.046-1.31.048-2.464.048H6.4c-1.153 0-1.898-.002-2.464-.048-.544-.044-.745-.12-.844-.17a2 2 0 0 1-.874-.874c-.05-.099-.126-.3-.17-.844C2.002 13.498 2 12.754 2 11.6V6.4c0-1.153.002-1.898.048-2.464.044-.544.12-.745.17-.844a2 2 0 0 1 .874-.874c.099-.05.3-.126.844-.17C4.502 2.002 5.246 2 6.4 2ZM0 6.4c0-2.24 0-3.36.436-4.216A4 4 0 0 1 2.184.436C3.04 0 4.16 0 6.4 0h9.2c2.24 0 3.36 0 4.216.436a4 4 0 0 1 1.748 1.748C22 3.04 22 4.16 22 6.4v5.2c0 2.24 0 3.36-.436 4.216a4 4 0 0 1-1.748 1.748C18.96 18 17.84 18 15.6 18H6.4c-2.24 0-3.36 0-4.216-.436a4 4 0 0 1-1.748-1.748C0 14.96 0 13.84 0 11.6V6.4Zm5.555-2.232a1 1 0 0 0-1.11 1.664l6 4a1 1 0 0 0 1.11 0l6-4a1 1 0 0 0-1.11-1.664L11 7.798l-5.445-3.63Z" clip-rule="evenodd"></path>
  </symbol>
  <symbol xmlns="http://www.w3.org/2000/svg" viewBox="0 0 18 12" id="menu">
    <path fill-rule="evenodd" d="M0 1a1 1 0 0 1 1-1h16a1 1 0 1 1 0 2H1a1 1 0 0 1-1-1Zm0 5a1 1 0 0 1 1-1h16a1 1 0 1 1 0 2H1a1 1 0 0 1-1-1Zm1 4a1 1 0 1 0 0 2h16a1 1 0 1 0 0-2H1Z" clip-rule="evenodd"></path>
  </symbol>
  <symbol xmlns="http://www.w3.org/2000/svg" viewBox="0 0 24 24" id="see_live">
    <path  fill-rule="evenodd" d="M5 12a7 7 0 0 1 7-7 1 1 0 1 0 0-2 9 9 0 1 0 9 9 1 1 0 1 0-2 0 7 7 0 1 1-14 0Zm11-9a1 1 0 1 0 0 2h1.586l-6.293 6.293a1 1 0 0 0 1.414 1.414L19 6.414V8a1 1 0 1 0 2 0V4a1 1 0 0 0-1-1h-4Z" clip-rule="evenodd"></path>
  </symbol>
  <symbol xmlns="http://www.w3.org/2000/svg" viewBox="0 0 20 20" id="twitter">
    <path d="M19.767.37c-.334-.399-.9-.499-1.334-.2L16.5 1.5C15.6.535 14.333.003 12.966.003c-2.7 0-4.933 2.193-4.933 4.917 0 .399.033.764.133 1.13C5.833 5.552 4.433 3.858 3.9.8 3.833.404 3.533.105 3.133.005c-.367-.1-.767.067-1 .366-.067.066-5.567 7.707 2.4 14.186-.767 1.628-3.067 3.023-3.967 3.488-.433.2-.633.665-.533 1.13.1.465.5.764.967.764h1.733c10.133 0 14.734-5.017 14.834-16.246l2.1-1.993c.4-.333.433-.93.1-1.33Z"></path>
  </symbol>
</svg>